STARTFONT 2.1
COMMENT
COMMENT Converted from OpenType font "TenThinnerGuys.ttf" by "otf2bdf 3.0".
COMMENT
FONT -FreeType-TenThinnerGuys-Medium-R-Normal--16-160-72-72-P-76-ISO10646-1
SIZE 16 72 72
FONTBOUNDINGBOX 15 15 -1 -3
STARTPROPERTIES 19
FOUNDRY "FreeType"
FAMILY_NAME "TenThinnerGuys"
WEIGHT_NAME "Medium"
SLANT "R"
SETWIDTH_NAME "Normal"
ADD_STYLE_NAME ""
PIXEL_SIZE 16
POINT_SIZE 160
RESOLUTION_X 72
RESOLUTION_Y 72
SPACING "P"
AVERAGE_WIDTH 76
CHARSET_REGISTRY "ISO10646"
CHARSET_ENCODING "1"
FONT_ASCENT 12
FONT_DESCENT 3
COPYRIGHT "Geoff"
_OTF_FONTFILE "TenThinnerGuys.ttf"
_OTF_PSNAME "TenThinnerGuys"
ENDPROPERTIES
CHARS 185
STARTCHAR 0020
ENCODING 32
SWIDTH 312 0
DWIDTH 5 0
BBX 0 0 0 0
BITMAP
ENDCHAR
STARTCHAR 0021
ENCODING 33
SWIDTH 187 0
DWIDTH 3 0
BBX 2 9 0 0
BITMAP
C0
C0
C0
C0
C0
C0
00
C0
C0
ENDCHAR
STARTCHAR 0022
ENCODING 34
SWIDTH 375 0
DWIDTH 6 0
BBX 5 4 0 5
BITMAP
D8
D8
D8
50
ENDCHAR
STARTCHAR 0023
ENCODING 35
SWIDTH 562 0
DWIDTH 9 0
BBX 8 9 0 0
BITMAP
66
FF
FF
66
66
66
FF
FF
66
ENDCHAR
STARTCHAR 0024
ENCODING 36
SWIDTH 437 0
DWIDTH 7 0
BBX 6 10 0 0
BITMAP
30
7C
FC
B0
F8
7C
34
FC
F8
30
ENDCHAR
STARTCHAR 0025
ENCODING 37
SWIDTH 562 0
DWIDTH 9 0
BBX 8 8 0 1
BITMAP
E3
A7
EE
1C
38
77
E5
C7
ENDCHAR
STARTCHAR 0026
ENCODING 38
SWIDTH 437 0
DWIDTH 7 0
BBX 6 6 0 2
BITMAP
30
30
FC
FC
30
30
ENDCHAR
STARTCHAR 0027
ENCODING 39
SWIDTH 250 0
DWIDTH 4 0
BBX 3 4 0 6
BITMAP
E0
E0
E0
40
ENDCHAR
STARTCHAR 0028
ENCODING 40
SWIDTH 437 0
DWIDTH 7 0
BBX 6 9 0 0
BITMAP
0C
1C
38
70
E0
70
38
1C
0C
ENDCHAR
STARTCHAR 0029
ENCODING 41
SWIDTH 437 0
DWIDTH 7 0
BBX 6 9 0 0
BITMAP
C0
E0
70
38
1C
38
70
E0
C0
ENDCHAR
STARTCHAR 002A
ENCODING 42
SWIDTH 500 0
DWIDTH 8 0
BBX 7 7 0 1
BITMAP
44
EE
7C
38
7C
EE
44
ENDCHAR
STARTCHAR 002B
ENCODING 43
SWIDTH 437 0
DWIDTH 7 0
BBX 6 6 0 1
BITMAP
30
30
FC
FC
30
30
ENDCHAR
STARTCHAR 002C
ENCODING 44
SWIDTH 250 0
DWIDTH 4 0
BBX 3 3 0 -1
BITMAP
60
60
C0
ENDCHAR
STARTCHAR 002D
ENCODING 45
SWIDTH 375 0
DWIDTH 6 0
BBX 5 2 0 3
BITMAP
F8
F8
ENDCHAR
STARTCHAR 002E
ENCODING 46
SWIDTH 187 0
DWIDTH 3 0
BBX 2 3 0 0
BITMAP
C0
C0
C0
ENDCHAR
STARTCHAR 002F
ENCODING 47
SWIDTH 687 0
DWIDTH 11 0
BBX 10 8 0 0
BITMAP
00C0
01C0
0380
C700
EE00
7C00
3800
1000
ENDCHAR
STARTCHAR 0030
ENCODING 48
SWIDTH 437 0
DWIDTH 7 0
BBX 6 9 0 0
BITMAP
FC
FC
CC
CC
CC
CC
CC
FC
FC
ENDCHAR
STARTCHAR 0031
ENCODING 49
SWIDTH 187 0
DWIDTH 3 0
BBX 2 9 0 0
BITMAP
C0
C0
C0
C0
C0
C0
C0
C0
C0
ENDCHAR
STARTCHAR 0032
ENCODING 50
SWIDTH 437 0
DWIDTH 7 0
BBX 6 9 0 0
BITMAP
F8
FC
0C
7C
F8
C0
C0
FC
FC
ENDCHAR
STARTCHAR 0033
ENCODING 51
SWIDTH 437 0
DWIDTH 7 0
BBX 6 9 0 0
BITMAP
F8
FC
0C
F8
FC
0C
0C
FC
F8
ENDCHAR
STARTCHAR 0034
ENCODING 52
SWIDTH 437 0
DWIDTH 7 0
BBX 6 9 0 0
BITMAP
CC
CC
CC
FC
FC
0C
0C
0C
0C
ENDCHAR
STARTCHAR 0035
ENCODING 53
SWIDTH 437 0
DWIDTH 7 0
BBX 6 9 0 0
BITMAP
FC
FC
C0
F8
FC
0C
0C
FC
F8
ENDCHAR
STARTCHAR 0036
ENCODING 54
SWIDTH 437 0
DWIDTH 7 0
BBX 6 9 0 0
BITMAP
7C
FC
C0
F8
FC
CC
CC
FC
78
ENDCHAR
STARTCHAR 0037
ENCODING 55
SWIDTH 437 0
DWIDTH 7 0
BBX 6 9 0 0
BITMAP
FC
FC
0C
0C
0C
0C
0C
0C
0C
ENDCHAR
STARTCHAR 0038
ENCODING 56
SWIDTH 437 0
DWIDTH 7 0
BBX 6 9 0 0
BITMAP
78
FC
CC
78
FC
CC
CC
FC
78
ENDCHAR
STARTCHAR 0039
ENCODING 57
SWIDTH 437 0
DWIDTH 7 0
BBX 6 9 0 0
BITMAP
78
FC
CC
CC
FC
7C
0C
7C
78
ENDCHAR
STARTCHAR 003A
ENCODING 58
SWIDTH 187 0
DWIDTH 3 0
BBX 2 7 0 0
BITMAP
C0
C0
C0
00
C0
C0
C0
ENDCHAR
STARTCHAR 003B
ENCODING 59
SWIDTH 250 0
DWIDTH 4 0
BBX 3 8 0 -1
BITMAP
60
60
60
00
60
60
60
C0
ENDCHAR
STARTCHAR 003C
ENCODING 60
SWIDTH 375 0
DWIDTH 6 0
BBX 5 9 0 0
BITMAP
08
18
38
78
F8
78
38
18
08
ENDCHAR
STARTCHAR 003D
ENCODING 61
SWIDTH 437 0
DWIDTH 7 0
BBX 6 5 0 2
BITMAP
FC
FC
00
FC
FC
ENDCHAR
STARTCHAR 003E
ENCODING 62
SWIDTH 437 0
DWIDTH 7 0
BBX 5 9 1 0
BITMAP
80
C0
E0
F0
F8
F0
E0
C0
80
ENDCHAR
STARTCHAR 003F
ENCODING 63
SWIDTH 437 0
DWIDTH 7 0
BBX 6 9 0 0
BITMAP
78
FC
CC
0C
3C
38
00
30
30
ENDCHAR
STARTCHAR 0040
ENCODING 64
SWIDTH 625 0
DWIDTH 10 0
BBX 9 9 0 0
BITMAP
0780
F380
F780
CE80
DC00
DB00
C300
FF00
FF00
ENDCHAR
STARTCHAR 0041
ENCODING 65
SWIDTH 437 0
DWIDTH 7 0
BBX 6 9 0 0
BITMAP
78
FC
CC
CC
FC
FC
CC
CC
CC
ENDCHAR
STARTCHAR 0042
ENCODING 66
SWIDTH 437 0
DWIDTH 7 0
BBX 6 9 0 0
BITMAP
F8
FC
CC
CC
F8
CC
CC
FC
F8
ENDCHAR
STARTCHAR 0043
ENCODING 67
SWIDTH 437 0
DWIDTH 7 0
BBX 6 9 0 0
BITMAP
7C
FC
C0
C0
C0
C0
C0
FC
7C
ENDCHAR
STARTCHAR 0044
ENCODING 68
SWIDTH 437 0
DWIDTH 7 0
BBX 6 9 0 0
BITMAP
F8
FC
CC
CC
CC
CC
CC
FC
F8
ENDCHAR
STARTCHAR 0045
ENCODING 69
SWIDTH 437 0
DWIDTH 7 0
BBX 6 9 0 0
BITMAP
FC
FC
C0
F8
F8
C0
C0
FC
FC
ENDCHAR
STARTCHAR 0046
ENCODING 70
SWIDTH 437 0
DWIDTH 7 0
BBX 6 9 0 0
BITMAP
FC
FC
C0
C0
F8
F8
C0
C0
C0
ENDCHAR
STARTCHAR 0047
ENCODING 71
SWIDTH 437 0
DWIDTH 7 0
BBX 6 9 0 0
BITMAP
7C
FC
C0
C0
CC
CC
CC
FC
7C
ENDCHAR
STARTCHAR 0048
ENCODING 72
SWIDTH 437 0
DWIDTH 7 0
BBX 6 9 0 0
BITMAP
CC
CC
CC
FC
FC
CC
CC
CC
CC
ENDCHAR
STARTCHAR 0049
ENCODING 73
SWIDTH 312 0
DWIDTH 5 0
BBX 4 9 0 0
BITMAP
F0
F0
60
60
60
60
60
F0
F0
ENDCHAR
STARTCHAR 004A
ENCODING 74
SWIDTH 437 0
DWIDTH 7 0
BBX 6 9 0 0
BITMAP
0C
0C
0C
0C
0C
CC
CC
FC
78
ENDCHAR
STARTCHAR 004B
ENCODING 75
SWIDTH 500 0
DWIDTH 8 0
BBX 6 9 1 0
BITMAP
CC
CC
DC
F8
F8
DC
CC
CC
CC
ENDCHAR
STARTCHAR 004C
ENCODING 76
SWIDTH 437 0
DWIDTH 7 0
BBX 6 9 0 0
BITMAP
C0
C0
C0
C0
C0
C0
C0
FC
FC
ENDCHAR
STARTCHAR 004D
ENCODING 77
SWIDTH 562 0
DWIDTH 9 0
BBX 8 9 0 0
BITMAP
C3
E7
FF
FF
DB
C3
C3
C3
C3
ENDCHAR
STARTCHAR 004E
ENCODING 78
SWIDTH 437 0
DWIDTH 7 0
BBX 6 9 0 0
BITMAP
CC
EC
FC
FC
DC
CC
CC
CC
CC
ENDCHAR
STARTCHAR 004F
ENCODING 79
SWIDTH 437 0
DWIDTH 7 0
BBX 6 9 0 0
BITMAP
78
FC
CC
CC
CC
CC
CC
FC
78
ENDCHAR
STARTCHAR 0050
ENCODING 80
SWIDTH 437 0
DWIDTH 7 0
BBX 6 9 0 0
BITMAP
F8
FC
CC
CC
FC
F8
C0
C0
C0
ENDCHAR
STARTCHAR 0051
ENCODING 81
SWIDTH 437 0
DWIDTH 7 0
BBX 6 10 0 -1
BITMAP
78
FC
CC
CC
CC
CC
CC
F8
7C
0C
ENDCHAR
STARTCHAR 0052
ENCODING 82
SWIDTH 437 0
DWIDTH 7 0
BBX 6 9 0 0
BITMAP
F8
FC
CC
CC
FC
F8
CC
CC
CC
ENDCHAR
STARTCHAR 0053
ENCODING 83
SWIDTH 437 0
DWIDTH 7 0
BBX 6 9 0 0
BITMAP
7C
FC
C0
F8
7C
0C
0C
FC
F8
ENDCHAR
STARTCHAR 0054
ENCODING 84
SWIDTH 437 0
DWIDTH 7 0
BBX 6 9 0 0
BITMAP
FC
FC
30
30
30
30
30
30
30
ENDCHAR
STARTCHAR 0055
ENCODING 85
SWIDTH 437 0
DWIDTH 7 0
BBX 6 9 0 0
BITMAP
CC
CC
CC
CC
CC
CC
CC
FC
78
ENDCHAR
STARTCHAR 0056
ENCODING 86
SWIDTH 437 0
DWIDTH 7 0
BBX 6 9 0 0
BITMAP
CC
CC
CC
CC
CC
CC
DC
F8
F0
ENDCHAR
STARTCHAR 0057
ENCODING 87
SWIDTH 562 0
DWIDTH 9 0
BBX 8 9 0 0
BITMAP
C3
C3
C3
DB
DB
DB
DB
FF
E7
ENDCHAR
STARTCHAR 0058
ENCODING 88
SWIDTH 437 0
DWIDTH 7 0
BBX 6 9 0 0
BITMAP
CC
CC
CC
FC
78
FC
CC
CC
CC
ENDCHAR
STARTCHAR 0059
ENCODING 89
SWIDTH 437 0
DWIDTH 7 0
BBX 6 9 0 0
BITMAP
CC
CC
CC
FC
78
30
30
30
30
ENDCHAR
STARTCHAR 005A
ENCODING 90
SWIDTH 500 0
DWIDTH 8 0
BBX 7 9 0 0
BITMAP
FE
FE
0E
1C
38
70
E0
FE
FE
ENDCHAR
STARTCHAR 005B
ENCODING 91
SWIDTH 312 0
DWIDTH 5 0
BBX 4 9 0 0
BITMAP
F0
F0
C0
C0
C0
C0
C0
F0
F0
ENDCHAR
STARTCHAR 005C
ENCODING 92
SWIDTH 625 0
DWIDTH 10 0
BBX 9 9 0 0
BITMAP
1C00
1C00
1C00
FF80
FF80
FF80
1C00
1C00
1C00
ENDCHAR
STARTCHAR 005D
ENCODING 93
SWIDTH 312 0
DWIDTH 5 0
BBX 4 9 0 0
BITMAP
F0
F0
30
30
30
30
30
F0
F0
ENDCHAR
STARTCHAR 005E
ENCODING 94
SWIDTH 437 0
DWIDTH 7 0
BBX 6 3 0 6
BITMAP
30
78
FC
ENDCHAR
STARTCHAR 005F
ENCODING 95
SWIDTH 562 0
DWIDTH 9 0
BBX 8 2 0 -3
BITMAP
FF
FF
ENDCHAR
STARTCHAR 0060
ENCODING 96
SWIDTH 750 0
DWIDTH 12 0
BBX 12 12 -1 -1
BITMAP
07F0
03F0
F9F0
F9F0
C3F0
C730
CE10
CC40
C0C0
C0C0
FFC0
FFC0
ENDCHAR
STARTCHAR 0061
ENCODING 97
SWIDTH 437 0
DWIDTH 7 0
BBX 6 7 0 0
BITMAP
78
FC
0C
7C
CC
FC
7C
ENDCHAR
STARTCHAR 0062
ENCODING 98
SWIDTH 437 0
DWIDTH 7 0
BBX 6 9 0 0
BITMAP
C0
C0
F8
FC
CC
CC
CC
FC
F8
ENDCHAR
STARTCHAR 0063
ENCODING 99
SWIDTH 437 0
DWIDTH 7 0
BBX 6 7 0 0
BITMAP
7C
FC
C0
C0
C0
FC
7C
ENDCHAR
STARTCHAR 0064
ENCODING 100
SWIDTH 437 0
DWIDTH 7 0
BBX 6 9 0 0
BITMAP
0C
0C
7C
FC
CC
CC
CC
FC
7C
ENDCHAR
STARTCHAR 0065
ENCODING 101
SWIDTH 437 0
DWIDTH 7 0
BBX 6 7 0 0
BITMAP
78
FC
CC
FC
C0
FC
78
ENDCHAR
STARTCHAR 0066
ENCODING 102
SWIDTH 312 0
DWIDTH 5 0
BBX 5 9 -1 0
BITMAP
38
78
60
F8
F8
60
60
60
60
ENDCHAR
STARTCHAR 0067
ENCODING 103
SWIDTH 437 0
DWIDTH 7 0
BBX 6 10 0 -3
BITMAP
78
FC
CC
CC
CC
FC
7C
0C
7C
78
ENDCHAR
STARTCHAR 0068
ENCODING 104
SWIDTH 437 0
DWIDTH 7 0
BBX 6 9 0 0
BITMAP
C0
C0
F8
FC
CC
CC
CC
CC
CC
ENDCHAR
STARTCHAR 0069
ENCODING 105
SWIDTH 187 0
DWIDTH 3 0
BBX 2 9 0 0
BITMAP
C0
00
C0
C0
C0
C0
C0
C0
C0
ENDCHAR
STARTCHAR 006A
ENCODING 106
SWIDTH 312 0
DWIDTH 5 0
BBX 4 11 0 -2
BITMAP
30
00
30
30
30
30
30
30
30
F0
E0
ENDCHAR
STARTCHAR 006B
ENCODING 107
SWIDTH 437 0
DWIDTH 7 0
BBX 6 9 0 0
BITMAP
C0
C0
CC
DC
F8
F8
DC
CC
CC
ENDCHAR
STARTCHAR 006C
ENCODING 108
SWIDTH 187 0
DWIDTH 3 0
BBX 2 9 0 0
BITMAP
C0
C0
C0
C0
C0
C0
C0
C0
C0
ENDCHAR
STARTCHAR 006D
ENCODING 109
SWIDTH 562 0
DWIDTH 9 0
BBX 8 7 0 0
BITMAP
FE
FF
DB
DB
DB
DB
DB
ENDCHAR
STARTCHAR 006E
ENCODING 110
SWIDTH 437 0
DWIDTH 7 0
BBX 6 7 0 0
BITMAP
F8
FC
CC
CC
CC
CC
CC
ENDCHAR
STARTCHAR 006F
ENCODING 111
SWIDTH 437 0
DWIDTH 7 0
BBX 6 7 0 0
BITMAP
78
FC
CC
CC
CC
FC
78
ENDCHAR
STARTCHAR 0070
ENCODING 112
SWIDTH 437 0
DWIDTH 7 0
BBX 6 9 0 -2
BITMAP
F8
FC
CC
CC
CC
FC
F8
C0
C0
ENDCHAR
STARTCHAR 0071
ENCODING 113
SWIDTH 437 0
DWIDTH 7 0
BBX 6 9 0 -2
BITMAP
7C
FC
CC
CC
CC
FC
7C
0C
0C
ENDCHAR
STARTCHAR 0072
ENCODING 114
SWIDTH 437 0
DWIDTH 7 0
BBX 6 7 0 0
BITMAP
7C
FC
C0
C0
C0
C0
C0
ENDCHAR
STARTCHAR 0073
ENCODING 115
SWIDTH 437 0
DWIDTH 7 0
BBX 6 7 0 0
BITMAP
7C
FC
C0
78
0C
FC
F8
ENDCHAR
STARTCHAR 0074
ENCODING 116
SWIDTH 375 0
DWIDTH 6 0
BBX 5 9 0 0
BITMAP
60
60
F8
F8
60
60
60
78
38
ENDCHAR
STARTCHAR 0075
ENCODING 117
SWIDTH 437 0
DWIDTH 7 0
BBX 6 7 0 0
BITMAP
CC
CC
CC
CC
CC
FC
7C
ENDCHAR
STARTCHAR 0076
ENCODING 118
SWIDTH 437 0
DWIDTH 7 0
BBX 6 7 0 0
BITMAP
CC
CC
CC
CC
DC
F8
F0
ENDCHAR
STARTCHAR 0077
ENCODING 119
SWIDTH 562 0
DWIDTH 9 0
BBX 8 7 0 0
BITMAP
DB
DB
DB
DB
DB
FF
7E
ENDCHAR
STARTCHAR 0078
ENCODING 120
SWIDTH 437 0
DWIDTH 7 0
BBX 6 7 0 0
BITMAP
CC
CC
FC
78
FC
CC
CC
ENDCHAR
STARTCHAR 0079
ENCODING 121
SWIDTH 437 0
DWIDTH 7 0
BBX 6 10 0 -3
BITMAP
CC
CC
CC
CC
CC
FC
7C
0C
FC
F8
ENDCHAR
STARTCHAR 007A
ENCODING 122
SWIDTH 500 0
DWIDTH 8 0
BBX 7 7 0 0
BITMAP
FE
FE
1C
38
70
FE
FE
ENDCHAR
STARTCHAR 007B
ENCODING 123
SWIDTH 625 0
DWIDTH 10 0
BBX 9 5 0 2
BITMAP
0800
1C00
3E00
7F00
FF80
ENDCHAR
STARTCHAR 007C
ENCODING 124
SWIDTH 187 0
DWIDTH 3 0
BBX 2 11 0 -1
BITMAP
C0
C0
C0
C0
C0
C0
C0
C0
C0
C0
C0
ENDCHAR
STARTCHAR 007D
ENCODING 125
SWIDTH 625 0
DWIDTH 10 0
BBX 9 5 0 0
BITMAP
FF80
7F00
3E00
1C00
0800
ENDCHAR
STARTCHAR 007E
ENCODING 126
SWIDTH 687 0
DWIDTH 11 0
BBX 10 4 0 2
BITMAP
7380
CE40
9CC0
7380
ENDCHAR
STARTCHAR 00A0
ENCODING 160
SWIDTH 312 0
DWIDTH 5 0
BBX 0 0 0 0
BITMAP
ENDCHAR
STARTCHAR 00A1
ENCODING 161
SWIDTH 750 0
DWIDTH 12 0
BBX 11 13 0 -1
BITMAP
1800
1800
1800
1B00
1B40
1B60
5FE0
DFE0
FFE0
FFE0
7FE0
3FE0
1FC0
ENDCHAR
STARTCHAR 00A2
ENCODING 162
SWIDTH 625 0
DWIDTH 10 0
BBX 9 12 0 0
BITMAP
1000
2800
2800
2C00
2B00
6A80
AA80
A080
8080
8080
4080
3F00
ENDCHAR
STARTCHAR 00A3
ENCODING 163
SWIDTH 562 0
DWIDTH 9 0
BBX 8 10 0 0
BITMAP
3C
7E
66
66
FF
FF
E7
E7
FF
FF
ENDCHAR
STARTCHAR 00A4
ENCODING 164
SWIDTH 687 0
DWIDTH 11 0
BBX 10 7 0 1
BITMAP
0200
0300
3F80
7FC0
FF80
C300
8200
ENDCHAR
STARTCHAR 00A5
ENCODING 165
SWIDTH 812 0
DWIDTH 13 0
BBX 12 9 0 0
BITMAP
0100
0180
1FC0
3FE0
7FF0
FFE0
FFC0
C180
8100
ENDCHAR
STARTCHAR 00A6
ENCODING 166
SWIDTH 562 0
DWIDTH 9 0
BBX 8 9 0 0
BITMAP
20
60
FC
FE
67
23
07
3E
3C
ENDCHAR
STARTCHAR 00A7
ENCODING 167
SWIDTH 562 0
DWIDTH 9 0
BBX 8 9 0 0
BITMAP
04
06
3F
7F
E6
C4
E0
7C
3C
ENDCHAR
STARTCHAR 00A8
ENCODING 168
SWIDTH 812 0
DWIDTH 13 0
BBX 12 11 0 0
BITMAP
0070
00F0
01E0
03C0
0780
0F00
0600
3800
7000
7000
E000
ENDCHAR
STARTCHAR 00A9
ENCODING 169
SWIDTH 687 0
DWIDTH 11 0
BBX 10 10 0 0
BITMAP
00C0
05C0
0F80
0700
0B80
1500
2800
5000
E000
C000
ENDCHAR
STARTCHAR 00AB
ENCODING 171
SWIDTH 562 0
DWIDTH 9 0
BBX 8 7 0 1
BITMAP
11
33
77
FF
77
33
11
ENDCHAR
STARTCHAR 00AC
ENCODING 172
SWIDTH 625 0
DWIDTH 10 0
BBX 9 9 0 0
BITMAP
3E00
7F00
E380
C980
DD80
C980
E380
7F00
3E00
ENDCHAR
STARTCHAR 00AE
ENCODING 174
SWIDTH 937 0
DWIDTH 15 0
BBX 14 10 0 0
BITMAP
0630
0E18
1ECC
FE6C
FE6C
FE6C
FE6C
1ECC
0E18
0630
ENDCHAR
STARTCHAR 00B0
ENCODING 176
SWIDTH 437 0
DWIDTH 7 0
BBX 6 4 0 6
BITMAP
78
CC
CC
78
ENDCHAR
STARTCHAR 00B4
ENCODING 180
SWIDTH 500 0
DWIDTH 8 0
BBX 7 7 0 1
BITMAP
FE
FE
FE
FE
FE
FE
FE
ENDCHAR
STARTCHAR 00B5
ENCODING 181
SWIDTH 562 0
DWIDTH 9 0
BBX 8 8 0 1
BITMAP
C3
E7
7E
3C
3C
7E
E7
C3
ENDCHAR
STARTCHAR 00B6
ENCODING 182
SWIDTH 500 0
DWIDTH 8 0
BBX 7 7 0 1
BITMAP
38
7C
C6
C6
C6
7C
38
ENDCHAR
STARTCHAR 00B7
ENCODING 183
SWIDTH 500 0
DWIDTH 8 0
BBX 7 7 0 1
BITMAP
38
7C
FE
FE
FE
7C
38
ENDCHAR
STARTCHAR 00BB
ENCODING 187
SWIDTH 562 0
DWIDTH 9 0
BBX 8 7 0 1
BITMAP
88
CC
EE
FF
EE
CC
88
ENDCHAR
STARTCHAR 00C0
ENCODING 192
SWIDTH 437 0
DWIDTH 7 0
BBX 6 9 0 0
BITMAP
C0
E0
F0
F8
FC
F8
F0
E0
C0
ENDCHAR
STARTCHAR 00C1
ENCODING 193
SWIDTH 437 0
DWIDTH 7 0
BBX 6 9 0 0
BITMAP
C0
E0
F0
F8
FC
F8
F0
E0
C0
ENDCHAR
STARTCHAR 00C2
ENCODING 194
SWIDTH 437 0
DWIDTH 7 0
BBX 6 9 0 0
BITMAP
C0
E0
F0
F8
FC
F8
F0
E0
C0
ENDCHAR
STARTCHAR 00C3
ENCODING 195
SWIDTH 437 0
DWIDTH 7 0
BBX 6 9 0 0
BITMAP
C0
E0
F0
F8
FC
F8
F0
E0
C0
ENDCHAR
STARTCHAR 00C4
ENCODING 196
SWIDTH 437 0
DWIDTH 7 0
BBX 6 9 0 0
BITMAP
C0
E0
F0
F8
FC
F8
F0
E0
C0
ENDCHAR
STARTCHAR 00C5
ENCODING 197
SWIDTH 437 0
DWIDTH 7 0
BBX 6 9 0 0
BITMAP
C0
E0
F0
F8
FC
F8
F0
E0
C0
ENDCHAR
STARTCHAR 00C8
ENCODING 200
SWIDTH 625 0
DWIDTH 10 0
BBX 9 9 0 0
BITMAP
D800
DC00
DE00
DF00
DF80
DF00
DE00
DC00
D800
ENDCHAR
STARTCHAR 00C9
ENCODING 201
SWIDTH 625 0
DWIDTH 10 0
BBX 9 9 0 0
BITMAP
D800
DC00
DE00
DF00
DF80
DF00
DE00
DC00
D800
ENDCHAR
STARTCHAR 00CA
ENCODING 202
SWIDTH 625 0
DWIDTH 10 0
BBX 9 9 0 0
BITMAP
D800
DC00
DE00
DF00
DF80
DF00
DE00
DC00
D800
ENDCHAR
STARTCHAR 00CB
ENCODING 203
SWIDTH 625 0
DWIDTH 10 0
BBX 9 9 0 0
BITMAP
D800
DC00
DE00
DF00
DF80
DF00
DE00
DC00
D800
ENDCHAR
STARTCHAR 00CC
ENCODING 204
SWIDTH 562 0
DWIDTH 9 0
BBX 8 9 0 0
BITMAP
C3
C7
CF
DF
FF
DF
CF
C7
C3
ENDCHAR
STARTCHAR 00CD
ENCODING 205
SWIDTH 562 0
DWIDTH 9 0
BBX 8 9 0 0
BITMAP
C3
C7
CF
DF
FF
DF
CF
C7
C3
ENDCHAR
STARTCHAR 00CE
ENCODING 206
SWIDTH 562 0
DWIDTH 9 0
BBX 8 9 0 0
BITMAP
C3
C7
CF
DF
FF
DF
CF
C7
C3
ENDCHAR
STARTCHAR 00CF
ENCODING 207
SWIDTH 562 0
DWIDTH 9 0
BBX 8 9 0 0
BITMAP
C3
C7
CF
DF
FF
DF
CF
C7
C3
ENDCHAR
STARTCHAR 00D1
ENCODING 209
SWIDTH 500 0
DWIDTH 8 0
BBX 7 7 0 1
BITMAP
FE
FE
FE
FE
FE
FE
FE
ENDCHAR
STARTCHAR 00D2
ENCODING 210
SWIDTH 687 0
DWIDTH 11 0
BBX 10 7 0 1
BITMAP
C440
CCC0
DDC0
FFC0
DDC0
CCC0
C440
ENDCHAR
STARTCHAR 00D3
ENCODING 211
SWIDTH 687 0
DWIDTH 11 0
BBX 10 7 0 1
BITMAP
C440
CCC0
DDC0
FFC0
DDC0
CCC0
C440
ENDCHAR
STARTCHAR 00D4
ENCODING 212
SWIDTH 687 0
DWIDTH 11 0
BBX 10 7 0 1
BITMAP
C440
CCC0
DDC0
FFC0
DDC0
CCC0
C440
ENDCHAR
STARTCHAR 00D5
ENCODING 213
SWIDTH 687 0
DWIDTH 11 0
BBX 10 7 0 1
BITMAP
C440
CCC0
DDC0
FFC0
DDC0
CCC0
C440
ENDCHAR
STARTCHAR 00D6
ENCODING 214
SWIDTH 687 0
DWIDTH 11 0
BBX 10 7 0 1
BITMAP
C440
CCC0
DDC0
FFC0
DDC0
CCC0
C440
ENDCHAR
STARTCHAR 00D7
ENCODING 215
SWIDTH 562 0
DWIDTH 9 0
BBX 8 8 0 0
BITMAP
C3
E7
7E
3C
3C
7E
E7
C3
ENDCHAR
STARTCHAR 00D8
ENCODING 216
SWIDTH 625 0
DWIDTH 10 0
BBX 9 9 0 0
BITMAP
0800
1C00
3E00
7F00
FF80
FF80
0000
FF80
FF80
ENDCHAR
STARTCHAR 00D9
ENCODING 217
SWIDTH 687 0
DWIDTH 11 0
BBX 10 7 0 1
BITMAP
88C0
CCC0
EEC0
FFC0
EEC0
CCC0
88C0
ENDCHAR
STARTCHAR 00DA
ENCODING 218
SWIDTH 687 0
DWIDTH 11 0
BBX 10 7 0 1
BITMAP
88C0
CCC0
EEC0
FFC0
EEC0
CCC0
88C0
ENDCHAR
STARTCHAR 00DB
ENCODING 219
SWIDTH 687 0
DWIDTH 11 0
BBX 10 7 0 1
BITMAP
88C0
CCC0
EEC0
FFC0
EEC0
CCC0
88C0
ENDCHAR
STARTCHAR 00DC
ENCODING 220
SWIDTH 687 0
DWIDTH 11 0
BBX 10 7 0 1
BITMAP
88C0
CCC0
EEC0
FFC0
EEC0
CCC0
88C0
ENDCHAR
STARTCHAR 00DF
ENCODING 223
SWIDTH 500 0
DWIDTH 8 0
BBX 7 9 0 0
BITMAP
06
0E
1E
FE
FE
FE
1E
0E
06
ENDCHAR
STARTCHAR 00E0
ENCODING 224
SWIDTH 562 0
DWIDTH 9 0
BBX 8 9 0 0
BITMAP
E7
E7
E7
E7
E7
E7
E7
E7
E7
ENDCHAR
STARTCHAR 00E1
ENCODING 225
SWIDTH 562 0
DWIDTH 9 0
BBX 8 9 0 0
BITMAP
E7
E7
E7
E7
E7
E7
E7
E7
E7
ENDCHAR
STARTCHAR 00E2
ENCODING 226
SWIDTH 562 0
DWIDTH 9 0
BBX 8 9 0 0
BITMAP
E7
E7
E7
E7
E7
E7
E7
E7
E7
ENDCHAR
STARTCHAR 00E3
ENCODING 227
SWIDTH 562 0
DWIDTH 9 0
BBX 8 9 0 0
BITMAP
E7
E7
E7
E7
E7
E7
E7
E7
E7
ENDCHAR
STARTCHAR 00E4
ENCODING 228
SWIDTH 562 0
DWIDTH 9 0
BBX 8 9 0 0
BITMAP
E7
E7
E7
E7
E7
E7
E7
E7
E7
ENDCHAR
STARTCHAR 00E5
ENCODING 229
SWIDTH 562 0
DWIDTH 9 0
BBX 8 9 0 0
BITMAP
E7
E7
E7
E7
E7
E7
E7
E7
E7
ENDCHAR
STARTCHAR 00E7
ENCODING 231
SWIDTH 562 0
DWIDTH 9 0
BBX 8 9 0 0
BITMAP
C3
C7
CF
DF
FF
DF
CF
C7
C3
ENDCHAR
STARTCHAR 00E8
ENCODING 232
SWIDTH 500 0
DWIDTH 8 0
BBX 7 7 0 1
BITMAP
10
38
7C
FE
7C
38
10
ENDCHAR
STARTCHAR 00E9
ENCODING 233
SWIDTH 500 0
DWIDTH 8 0
BBX 7 7 0 1
BITMAP
10
38
7C
FE
7C
38
10
ENDCHAR
STARTCHAR 00EA
ENCODING 234
SWIDTH 500 0
DWIDTH 8 0
BBX 7 7 0 1
BITMAP
10
38
7C
FE
7C
38
10
ENDCHAR
STARTCHAR 00EB
ENCODING 235
SWIDTH 500 0
DWIDTH 8 0
BBX 7 7 0 1
BITMAP
10
38
7C
FE
7C
38
10
ENDCHAR
STARTCHAR 00F8
ENCODING 248
SWIDTH 500 0
DWIDTH 8 0
BBX 7 7 0 1
BITMAP
38
7C
C6
C6
C6
7C
38
ENDCHAR
STARTCHAR 00F9
ENCODING 249
SWIDTH 500 0
DWIDTH 8 0
BBX 7 9 0 0
BITMAP
06
0E
1E
FE
FE
FE
1E
0E
06
ENDCHAR
STARTCHAR 00FA
ENCODING 250
SWIDTH 750 0
DWIDTH 12 0
BBX 11 9 0 0
BITMAP
0600
0E00
1EC0
FE60
FE60
FE60
1EC0
0E00
0600
ENDCHAR
STARTCHAR 00FB
ENCODING 251
SWIDTH 937 0
DWIDTH 15 0
BBX 14 9 0 0
BITMAP
0630
0E18
1ECC
FE6C
FE6C
FE6C
1ECC
0E18
0630
ENDCHAR
STARTCHAR 00FC
ENCODING 252
SWIDTH 625 0
DWIDTH 10 0
BBX 9 9 0 0
BITMAP
0680
0D00
1A00
F400
EA00
D600
2E00
4E00
0600
ENDCHAR
STARTCHAR 0106
ENCODING 262
SWIDTH 625 0
DWIDTH 10 0
BBX 9 9 0 0
BITMAP
FF80
FF80
C180
C180
C180
C180
C180
FF80
FF80
ENDCHAR
STARTCHAR 0107
ENCODING 263
SWIDTH 625 0
DWIDTH 10 0
BBX 9 9 0 0
BITMAP
FF80
FF80
EB80
D580
EB80
D580
EB80
FF80
FF80
ENDCHAR
STARTCHAR 0108
ENCODING 264
SWIDTH 687 0
DWIDTH 11 0
BBX 10 9 0 0
BITMAP
FF40
FEC0
C180
A300
B680
DD80
C980
F780
FF80
ENDCHAR
STARTCHAR 0139
ENCODING 313
SWIDTH 937 0
DWIDTH 15 0
BBX 14 6 0 2
BITMAP
3CF0
7FF8
E39C
E71C
7FF8
3CF0
ENDCHAR
STARTCHAR 013B
ENCODING 315
SWIDTH 937 0
DWIDTH 15 0
BBX 14 6 0 2
BITMAP
30F0
79F8
E09C
E41C
7E78
3C30
ENDCHAR
STARTCHAR 0154
ENCODING 340
SWIDTH 625 0
DWIDTH 10 0
BBX 9 9 0 0
BITMAP
3E00
7F00
E380
C180
C180
C180
E380
7F00
3E00
ENDCHAR
STARTCHAR 0155
ENCODING 341
SWIDTH 625 0
DWIDTH 10 0
BBX 9 9 0 0
BITMAP
3E00
7F00
EB80
D580
EB80
D580
EB80
7F00
3E00
ENDCHAR
STARTCHAR 0156
ENCODING 342
SWIDTH 625 0
DWIDTH 10 0
BBX 9 9 0 0
BITMAP
3E00
7F00
E380
C980
DD80
C980
E380
7F00
3E00
ENDCHAR
STARTCHAR 0158
ENCODING 344
SWIDTH 625 0
DWIDTH 10 0
BBX 9 9 0 0
BITMAP
3E00
7F00
E780
CF80
DD80
F980
F380
7F00
3E00
ENDCHAR
STARTCHAR 017B
ENCODING 379
SWIDTH 750 0
DWIDTH 12 0
BBX 11 11 0 -1
BITMAP
3E00
7F00
E380
C980
DD80
C980
E380
7F80
3FC0
00E0
0060
ENDCHAR
STARTCHAR 017C
ENCODING 380
SWIDTH 750 0
DWIDTH 12 0
BBX 11 11 0 -1
BITMAP
3E00
7F00
E380
C180
C180
C180
E380
7F80
3FC0
00E0
0060
ENDCHAR
STARTCHAR 017D
ENCODING 381
SWIDTH 750 0
DWIDTH 12 0
BBX 11 11 0 -1
BITMAP
3E00
7F00
E380
C180
DD80
C180
E380
7F80
3FC0
00E0
0060
ENDCHAR
STARTCHAR 017E
ENCODING 382
SWIDTH 750 0
DWIDTH 12 0
BBX 11 11 0 -1
BITMAP
3E00
7F00
E380
D580
C980
D580
E380
7F80
3FC0
00E0
0060
ENDCHAR
STARTCHAR 0192
ENCODING 402
SWIDTH 625 0
DWIDTH 10 0
BBX 9 9 0 0
BITMAP
D800
DC00
DE00
DF00
DF80
DF00
DE00
DC00
D800
ENDCHAR
STARTCHAR 02C6
ENCODING 710
SWIDTH 687 0
DWIDTH 11 0
BBX 10 9 0 0
BITMAP
FF40
FEC0
C180
A300
B680
DD80
C980
F780
FF80
ENDCHAR
STARTCHAR 02D9
ENCODING 729
SWIDTH 625 0
DWIDTH 10 0
BBX 9 9 0 0
BITMAP
FF80
FF80
C180
C180
C180
C180
C180
FF80
FF80
ENDCHAR
STARTCHAR 02DA
ENCODING 730
SWIDTH 625 0
DWIDTH 10 0
BBX 9 9 0 0
BITMAP
3E00
7F00
E380
C180
C180
C180
E380
7F00
3E00
ENDCHAR
STARTCHAR 02DC
ENCODING 732
SWIDTH 500 0
DWIDTH 8 0
BBX 7 7 0 1
BITMAP
38
7C
FE
FE
FE
7C
38
ENDCHAR
STARTCHAR 03C0
ENCODING 960
SWIDTH 500 0
DWIDTH 8 0
BBX 7 7 0 1
BITMAP
10
38
7C
FE
7C
38
10
ENDCHAR
STARTCHAR 2020
ENCODING 8224
SWIDTH 750 0
DWIDTH 12 0
BBX 11 9 0 0
BITMAP
0600
0E00
1EC0
FE60
FE60
FE60
1EC0
0E00
0600
ENDCHAR
STARTCHAR 20AC
ENCODING 8364
SWIDTH 562 0
DWIDTH 9 0
BBX 8 11 0 0
BITMAP
3C
7E
66
66
60
FF
FF
E7
E7
FF
FF
ENDCHAR
STARTCHAR 2202
ENCODING 8706
SWIDTH 562 0
DWIDTH 9 0
BBX 8 9 0 0
BITMAP
E7
E7
E7
E7
E7
E7
E7
E7
E7
ENDCHAR
STARTCHAR 2206
ENCODING 8710
SWIDTH 562 0
DWIDTH 9 0
BBX 8 9 0 0
BITMAP
C3
C7
CF
DF
FF
DF
CF
C7
C3
ENDCHAR
STARTCHAR 2211
ENCODING 8721
SWIDTH 500 0
DWIDTH 8 0
BBX 7 7 0 1
BITMAP
FE
FE
FE
FE
FE
FE
FE
ENDCHAR
STARTCHAR 221A
ENCODING 8730
SWIDTH 687 0
DWIDTH 11 0
BBX 10 8 0 0
BITMAP
00C0
01C0
0380
C700
EE00
7C00
3800
1000
ENDCHAR
STARTCHAR 222B
ENCODING 8747
SWIDTH 437 0
DWIDTH 7 0
BBX 6 9 0 0
BITMAP
C0
E0
F0
F8
FC
F8
F0
E0
C0
ENDCHAR
STARTCHAR 2248
ENCODING 8776
SWIDTH 687 0
DWIDTH 11 0
BBX 10 7 0 1
BITMAP
C440
CCC0
DDC0
FFC0
DDC0
CCC0
C440
ENDCHAR
STARTCHAR 3000
ENCODING 12288
SWIDTH 1000 0
DWIDTH 16 0
BBX 0 0 0 0
BITMAP
ENDCHAR
ENDFONT
